<svg xmlns="http://www.w3.org/2000/svg" viewBox="0 0 100 100" fill="none">
  <defs>
    <linearGradient id="blueGrad" x1="0%" y1="0%" x2="100%" y2="100%">
      <stop offset="0%" stop-color="#5B82C0"/>
      <stop offset="100%" stop-color="#1B2A4A"/>
    </linearGradient>
    <linearGradient id="goldGrad" x1="0%" y1="0%" x2="100%" y2="100%">
      <stop offset="0%" stop-color="#D4A84B"/>
      <stop offset="100%" stop-color="#8B6914"/>
    </linearGradient>
    <linearGradient id="arrowGrad" x1="0%" y1="100%" x2="100%" y2="0%">
      <stop offset="0%" stop-color="#1B2A4A"/>
      <stop offset="45%" stop-color="#3D5A90"/>
      <stop offset="100%" stop-color="#C9A030"/>
    </linearGradient>
    <filter id="dropshadow" x="-15%" y="-15%" width="130%" height="130%">
      <feDropShadow dx="1.5" dy="2" stdDeviation="2.5" flood-color="rgba(0,0,0,0.35)"/>
    </filter>
  </defs>
  <g filter="url(#dropshadow)">
    <rect x="12" y="18" width="12" height="64" rx="2" fill="url(#blueGrad)"/>
    <path d="M24 18 L24 18 C44 18 50 26 50 36 C50 46 44 54 24 54 L24 54 Z" fill="url(#blueGrad)"/>
    <path d="M24 28 L24 44 C38 44 40 40 40 36 C40 32 38 28 24 28 Z" fill="white" opacity="0.15"/>
  </g>
  <g filter="url(#dropshadow)">
    <rect x="62" y="18" width="12" height="52" rx="2" fill="url(#goldGrad)"/>
    <path d="M62 68 L74 68 Q74 88 56 88 Q44 88 40 80 L50 76 Q52 82 56 82 Q62 82 62 76 Z" fill="url(#goldGrad)"/>
  </g>
  <g filter="url(#dropshadow)">
    <rect x="14" y="47" width="76" height="9" rx="4.5" transform="rotate(-38 14 47)" fill="url(#arrowGrad)"/>
    <polygon points="78,10 96,10 96,28 80,20" fill="#C9A030"/>
    <polygon points="88,4 100,18 84,24" fill="#D4A84B"/>
  </g>
</svg>
